{"title":"Dead Rising Watchtower 2015 Movies HDRip XViD New +Sample â˜»rDXâ˜»","uid":11779632,"size":741003844,"categoryP":"video","categoryS":"movies","magnet":"?xt=urn:btih:4fd87044737491393dfec5c2d26f761897f6c1e2&amp;dn=Dead+Rising+Watchtower+2015+Movies+HDRip+XViD+New+%2BSample+%E2%98%BBrDX%E2%98%BB&amp;tr=udp%3A%2F%2Ftracker.openbittorrent.com%3A80&amp;tr=udp%3A%2F%2Fopen.demonii.com%3A1337&amp;tr=udp%3A%2F%2Ftracker.coppersurfer.tk%3A6969&amp;tr=udp%3A%2F%2Fexodus.desync.com%3A6969","seeders":6,"leechers":5,"uploader":"basicssom","files":2,"time":1427518500,"description":"----------------------------------------------------------------\nDead Rising Watchtower 2015 English Movies HDRip XViD AAC New Source with Sample ~ â˜»rDXâ˜»\n\nSCREEN SHOTS &amp; POSTER:\n &lt;a href=&quot;\nhttp://istoreimg.co.nr/2015/4/DeadRisingWatchtower/11.html&quot; rel=&quot;nofollow&quot; target=&quot;_NEW&quot;&gt;\nhttp://istoreimg.co.nr/2015/4/DeadRisingWatchtower/11.html&lt;/a&gt; &lt;a href=&quot;\nhttp://istoreimg.co.nr/2015/4/DeadRisingWatchtower/1.html&quot; rel=&quot;nofollow&quot; target=&quot;_NEW&quot;&gt;\nhttp://istoreimg.co.nr/2015/4/DeadRisingWatchtower/1.html&lt;/a&gt; &lt;a href=&quot;\nhttp://istoreimg.co.nr/2015/4/DeadRisingWatchtower/2.html&quot; rel=&quot;nofollow&quot; target=&quot;_NEW&quot;&gt;\nhttp://istoreimg.co.nr/2015/4/DeadRisingWatchtower/2.html&lt;/a&gt; &lt;a href=&quot;\nhttp://istoreimg.co.nr/2015/4/DeadRisingWatchtower/3.html&quot; rel=&quot;nofollow&quot; target=&quot;_NEW&quot;&gt;\nhttp://istoreimg.co.nr/2015/4/DeadRisingWatchtower/3.html&lt;/a&gt; &lt;a href=&quot;\nhttp://istoreimg.co.nr/2015/4/DeadRisingWatchtower/4.html&quot; rel=&quot;nofollow&quot; target=&quot;_NEW&quot;&gt;\nhttp://istoreimg.co.nr/2015/4/DeadRisingWatchtower/4.html&lt;/a&gt; &lt;a href=&quot;\nhttp://istoreimg.co.nr/2015/4/DeadRisingWatchtower/5.html&quot; rel=&quot;nofollow&quot; target=&quot;_NEW&quot;&gt;\nhttp://istoreimg.co.nr/2015/4/DeadRisingWatchtower/5.html&lt;/a&gt; &lt;a href=&quot;\nhttp://istoreimg.co.nr/2015/4/DeadRisingWatchtower/6.html&quot; rel=&quot;nofollow&quot; target=&quot;_NEW&quot;&gt;\nhttp://istoreimg.co.nr/2015/4/DeadRisingWatchtower/6.html&lt;/a&gt; &lt;a href=&quot;\nhttp://istoreimg.co.nr/2015/4/DeadRisingWatchtower/7.html&quot; rel=&quot;nofollow&quot; target=&quot;_NEW&quot;&gt;\nhttp://istoreimg.co.nr/2015/4/DeadRisingWatchtower/7.html&lt;/a&gt; &lt;a href=&quot;\nhttp://istoreimg.co.nr/2015/4/DeadRisingWatchtower/8.html&quot; rel=&quot;nofollow&quot; target=&quot;_NEW&quot;&gt;\nhttp://istoreimg.co.nr/2015/4/DeadRisingWatchtower/8.html&lt;/a&gt; &lt;a href=&quot;\nhttp://istoreimg.co.nr/2015/4/DeadRisingWatchtower/9.html&quot; rel=&quot;nofollow&quot; target=&quot;_NEW&quot;&gt;\nhttp://istoreimg.co.nr/2015/4/DeadRisingWatchtower/9.html&lt;/a&gt; &lt;a href=&quot;\nhttp://istoreimg.co.nr/2015/4/DeadRisingWatchtower/10.html&quot; rel=&quot;nofollow&quot; target=&quot;_NEW&quot;&gt;\nhttp://istoreimg.co.nr/2015/4/DeadRisingWatchtower/10.html&lt;/a&gt;\n\nFormat                                   : Matroska\nFormat version                           : Version 4 / Version 2\nFile size                                : 692 MiB\nDuration                                 : 1h 47mn\nOverall bit rate                         : 899 Kbps\nMovie name                               : Dead Rising Watchtower 2015 English Movies HDRip XViD AAC New Source ~ rDX ~\n\nVideo\nID                                       : 1\nFormat                                   : MPEG-4 Visual\nFormat profile                           : Advanced Simple@L5\nFormat settings, BVOP                    : Yes\nFormat settings, QPel                    : No\nFormat settings, GMC                     : No warppoints\nFormat settings, Matrix                  : Default (H.263)\nCodec ID                                 : V_MS/VFW/FOURCC / XVID\nCodec ID/Hint                            : XviD\nDuration                                 : 1h 47mn\nBit rate                                 : 753 Kbps\nWidth                                    : 640 pixels\nHeight                                   : 272 pixels\nDisplay aspect ratio                     : 2.35:1\nFrame rate mode                          : Constant\nFrame rate                               : 25.000 fps\nColor space                              : YUV\nChroma subsampling                       : 4:2:0\nBit depth                                : 8 bits\nScan type                                : Progressive\nCompression mode                         : Lossy\nBits/(Pixel*Frame)                       : 0.173\nStream size                              : 580 MiB (84%)\nTitle                                    : ~ rDX ~\nWriting library                          : XviD 64\nDefault                                  : Yes\nForced                                   : No\n\nAudio\nID                                       : 2\nFormat                                   : MPEG Audio\nFormat version                           : Version 1\nFormat profile                           : Layer 3\nMode                                     : Joint stereo\nMode extension                           : MS Stereo\nCodec ID                                 : A_MPEG/L3\nCodec ID/Hint                            : MP3\nDuration                                 : 1h 47mn\nBit rate mode                            : Constant\nBit rate                                 : 128 Kbps\nChannel(s)                               : 2 channels\nSampling rate                            : 48.0 KHz\nCompression mode                         : Lossy\nStream size                              : 98.5 MiB (14%)\nTitle                                    : ~ rDX ~\nWriting library                          : LAME3.99r\nEncoding settings                        : -m j -V 4 -q 3 -lowpass 17 -b 128\nDefault                                  : Yes\nForced                                   : No","torrent":{"xt":"urn:btih:4fd87044737491393dfec5c2d26f761897f6c1e2","amp;dn":"Dead+Rising+Watchtower+2015+Movies+HDRip+XViD+New+%2BSample+%E2%98%BBrDX%E2%98%BB","amp;tr":["udp%3A%2F%2Ftracker.openbittorrent.com%3A80","udp%3A%2F%2Fopen.demonii.com%3A1337","udp%3A%2F%2Ftracker.coppersurfer.tk%3A6969","udp%3A%2F%2Fexodus.desync.com%3A6969"],"infoHash":"4fd87044737491393dfec5c2d26f761897f6c1e2","infoHashBuffer":{"type":"Buffer","data":[79,216,112,68,115,116,145,57,61,254,197,194,210,111,118,24,151,246,193,226]},"announce":[],"urlList":[]}}